<?xml version="1.0" encoding="UTF-8"?>
<svg width="100px" height="180px" viewBox="0 0 100 180" version="1.1" xmlns="http://www.w3.org/2000/svg" xmlns:xlink="http://www.w3.org/1999/xlink">
    <!-- Generator: Sketch 56.2 (81672) - https://sketch.com -->
    <title>Artboard</title>
    <desc>Created with Sketch.</desc>
    <defs>
        <path d="M20.5021155,-4.39004303e-16 L52.5137575,-4.39004303e-16 C59.6427898,-4.39004303e-16 62.2279491,0.742280272 64.8342166,2.13612745 C67.4404843,3.52997462 69.4858983,5.5753887 70.8797457,8.18165632 C72.2735928,10.7879239 73.015873,13.3730833 73.015873,20.5021155 L73.015873,51.3261213 C73.015873,58.4551536 72.2735928,61.0403128 70.8797457,63.6465806 C69.4858983,66.2528481 67.4404843,68.2982623 64.8342166,69.6921094 C62.2279491,71.0859566 59.6427898,71.8282368 52.5137575,71.8282368 L20.5021155,71.8282368 C13.3730833,71.8282368 10.7879239,71.0859566 8.18165632,69.6921094 C5.5753887,68.2982623 3.52997462,66.2528481 2.13612745,63.6465806 C0.742280272,61.0403128 -2.92669535e-16,58.4551536 -2.92669535e-16,51.3261213 L-2.92669535e-16,20.5021155 C-2.92669535e-16,13.3730833 0.742280272,10.7879239 2.13612745,8.18165632 C3.52997462,5.5753887 5.5753887,3.52997462 8.18165632,2.13612745 C10.7879239,0.742280272 13.3730833,-4.39004303e-16 20.5021155,-4.39004303e-16 Z" id="path-1"></path>
        <path d="M20.5021155,-4.39004303e-16 L52.5137575,-4.39004303e-16 C59.6427898,-4.39004303e-16 62.2279491,0.742280272 64.8342166,2.13612745 C67.4404843,3.52997462 69.4858983,5.5753887 70.8797457,8.18165632 C72.2735928,10.7879239 73.015873,13.3730833 73.015873,20.5021155 L73.015873,51.3261213 C73.015873,58.4551536 72.2735928,61.0403128 70.8797457,63.6465806 C69.4858983,66.2528481 67.4404843,68.2982623 64.8342166,69.6921094 C62.2279491,71.0859566 59.6427898,71.8282368 52.5137575,71.8282368 L20.5021155,71.8282368 C13.3730833,71.8282368 10.7879239,71.0859566 8.18165632,69.6921094 C5.5753887,68.2982623 3.52997462,66.2528481 2.13612745,63.6465806 C0.742280272,61.0403128 -2.92669535e-16,58.4551536 -2.92669535e-16,51.3261213 L-2.92669535e-16,20.5021155 C-2.92669535e-16,13.3730833 0.742280272,10.7879239 2.13612745,8.18165632 C3.52997462,5.5753887 5.5753887,3.52997462 8.18165632,2.13612745 C10.7879239,0.742280272 13.3730833,-4.39004303e-16 20.5021155,-4.39004303e-16 Z" id="path-3"></path>
        <path d="M20.5021155,-4.39004303e-16 L52.5137575,-4.39004303e-16 C59.6427898,-4.39004303e-16 62.2279491,0.742280272 64.8342166,2.13612745 C67.4404843,3.52997462 69.4858983,5.5753887 70.8797457,8.18165632 C72.2735928,10.7879239 73.015873,13.3730833 73.015873,20.5021155 L73.015873,51.3261213 C73.015873,58.4551536 72.2735928,61.0403128 70.8797457,63.6465806 C69.4858983,66.2528481 67.4404843,68.2982623 64.8342166,69.6921094 C62.2279491,71.0859566 59.6427898,71.8282368 52.5137575,71.8282368 L20.5021155,71.8282368 C13.3730833,71.8282368 10.7879239,71.0859566 8.18165632,69.6921094 C5.5753887,68.2982623 3.52997462,66.2528481 2.13612745,63.6465806 C0.742280272,61.0403128 -2.92669535e-16,58.4551536 -2.92669535e-16,51.3261213 L-2.92669535e-16,20.5021155 C-2.92669535e-16,13.3730833 0.742280272,10.7879239 2.13612745,8.18165632 C3.52997462,5.5753887 5.5753887,3.52997462 8.18165632,2.13612745 C10.7879239,0.742280272 13.3730833,-4.39004303e-16 20.5021155,-4.39004303e-16 Z" id="path-5"></path>
    </defs>
    <g id="Artboard" stroke="none" stroke-width="1" fill="none" fill-rule="evenodd">
        <g id="icon" transform="translate(0.000000, 1.000000)">
            <g id="Phone" transform="translate(24.809525, 0.000000)" fill-rule="nonzero">
                <rect id="Rectangle" stroke="#111111" stroke-width="3.12296681" fill="#FFFFFF" x="0.561483409" y="0.561483409" width="73.0675094" height="134.287573" rx="6.24593364"></rect>
                <path d="M29.1329119,8.36890045 L45.0575642,8.36890045 C45.9199477,8.36890045 46.6190475,9.0680004 46.6190475,9.93038387 C46.6190475,10.7927673 45.9199477,11.4918673 45.0575642,11.4918673 L29.1329119,11.4918673 C28.2705285,11.4918673 27.5714285,10.7927673 27.5714285,9.93038387 C27.5714285,9.0680004 28.2705285,8.36890045 29.1329119,8.36890045 Z" id="Rectangle" fill="#111111"></path>
            </g>
            <g id="iOS-App-Icon/White" transform="translate(0.000000, 23.983734)">
                <g id="Smooth-Corners" fill="#FFFFFF" fill-rule="nonzero">
                    <path d="M20.5021155,-4.39004303e-16 L52.5137575,-4.39004303e-16 C59.6427898,-4.39004303e-16 62.2279491,0.742280272 64.8342166,2.13612745 C67.4404843,3.52997462 69.4858983,5.5753887 70.8797457,8.18165632 C72.2735928,10.7879239 73.015873,13.3730833 73.015873,20.5021155 L73.015873,51.3261213 C73.015873,58.4551536 72.2735928,61.0403128 70.8797457,63.6465806 C69.4858983,66.2528481 67.4404843,68.2982623 64.8342166,69.6921094 C62.2279491,71.0859566 59.6427898,71.8282368 52.5137575,71.8282368 L20.5021155,71.8282368 C13.3730833,71.8282368 10.7879239,71.0859566 8.18165632,69.6921094 C5.5753887,68.2982623 3.52997462,66.2528481 2.13612745,63.6465806 C0.742280272,61.0403128 -2.92669535e-16,58.4551536 -2.92669535e-16,51.3261213 L-2.92669535e-16,20.5021155 C-2.92669535e-16,13.3730833 0.742280272,10.7879239 2.13612745,8.18165632 C3.52997462,5.5753887 5.5753887,3.52997462 8.18165632,2.13612745 C10.7879239,0.742280272 13.3730833,-4.39004303e-16 20.5021155,-4.39004303e-16 Z" id="path-1"></path>
                </g>
                <g id="Background-Clipped">
                    <mask id="mask-2" fill="white">
                        <use xlink:href="#path-1"></use>
                    </mask>
                    <g id="path-1"></g>
                    <rect id="Background" fill="#000000" fill-rule="nonzero" mask="url(#mask-2)" x="0" y="0" width="73.015873" height="71.8282368"></rect>
                </g>
                <g id="Buzz-Clipped">
                    <mask id="mask-4" fill="white">
                        <use xlink:href="#path-3"></use>
                    </mask>
                    <g id="path-1"></g>
                    <path d="M21.7837947,36.7683566 C22.9551047,37.7357987 23.6453157,39.2407858 23.3994677,40.8853679 C23.0575413,43.1425015 21.0066892,44.7697211 18.6852633,44.7697211 L11.4087302,44.7697211 L11.4087302,28.9288113 L18.5072355,28.9288113 C20.7806223,28.9288113 22.7982708,30.4928311 23.1917687,32.6944043 C23.4792977,34.2952328 22.8682102,35.7745234 21.7837947,36.7683566 Z M15.1126975,32.5700885 L15.1126975,35.392547 L18.1222151,35.392547 C18.915034,35.392547 19.5577408,34.7607181 19.5577408,33.9813177 C19.5577408,33.2019174 18.915034,32.5700885 18.1222151,32.5700885 L15.1126975,32.5700885 Z M18.3044816,41.1277494 C19.0973006,41.1277494 19.7400074,40.4959206 19.7400074,39.7165202 C19.7400074,38.9371198 19.0973006,38.3052909 18.3044816,38.3052909 L15.1126975,38.3052909 L15.1126975,41.1277494 L18.3044816,41.1277494 Z M41.3258783,41.4875017 L45.8804228,41.4875017 L45.8804228,44.7697211 L36.8568153,44.7697211 L36.8568153,42.1243606 L40.9818325,36.1176077 L36.8568153,36.1176077 L36.8568153,32.8333049 L45.5194221,32.8333049 L45.5194221,35.4772762 L41.3258783,41.4875017 Z M51.8754383,41.4875017 L56.429983,41.4875017 L56.429983,44.7697211 L47.4063755,44.7697211 L47.4063755,42.1243606 L51.5313926,36.1176077 L47.4063755,36.1176077 L47.4063755,32.8333049 L56.0689821,32.8333049 L56.0689821,35.4772762 L51.8754383,41.4875017 Z M35.2496198,32.8333049 L35.2503262,32.8333049 L35.2503262,39.14425 C35.2442036,40.2758262 35.1500091,41.1640951 34.9677425,41.8090564 C34.7736764,42.4849306 34.4125455,43.1031117 33.9165308,43.6085126 C32.9722298,44.6062815 31.703193,45.1155834 30.1094204,45.1364185 L30.0585553,45.1364185 L30.0076902,45.1364185 C28.4115626,45.1188243 27.1425258,44.6095225 26.2005798,43.6085126 C25.7045136,43.1032634 25.3435821,42.4850081 25.1500745,41.8090564 C24.967337,41.1636321 24.8731423,40.2753632 24.8674906,39.14425 L24.8674906,32.8333049 L28.5721643,32.8333049 L28.5721643,39.9533455 C28.5721643,40.5603408 28.7605536,41.0045909 29.1373321,41.286096 C29.6790453,41.7000375 30.4373589,41.7000375 30.9790721,41.286096 C31.3558504,41.0045909 31.5442396,40.5603408 31.5442396,39.9533455 L31.5442396,32.8333049 L35.2496198,32.8333049 Z" id="Buzz" fill="#FFFFFF" fill-rule="nonzero" mask="url(#mask-4)"></path>
                </g>
                <g id="Cube-Clipped">
                    <mask id="mask-6" fill="white">
                        <use xlink:href="#path-5"></use>
                    </mask>
                    <g id="path-1"></g>
                    <g id="Cube" mask="url(#mask-6)">
                        <g transform="translate(54.716981, 23.641509)" id="Group">
                            <g transform="translate(0.472751, 0.488289)">
                                <rect id="Rectangle" fill="#FF507E" fill-rule="nonzero" x="0" y="1.13686838e-13" width="9.69742064" height="4.76984385"></rect>
                                <rect id="Rectangle" fill="#E51F5C" fill-rule="nonzero" x="4.84871032" y="0" width="4.84871032" height="9.5396877"></rect>
                                <rect id="Rectangle" fill="#FC2A57" fill-rule="nonzero" x="4.84871032" y="1.13686838e-13" width="4.84871032" height="4.76984385"></rect>
                            </g>
                        </g>
                    </g>
                </g>
            </g>
            <g id="Hand" stroke-linecap="round" transform="translate(39.682540, 89.566038)" fill="#FFFFFF" fill-rule="nonzero" stroke="#000000" stroke-width="3.12296681">
                <path d="M13.9557809,90.5660377 C12.7985022,68.2822732 1.21291865e-13,78.0741704 0.0681635489,47.6107119 C1.22571567,40.4345843 12.8471079,37.7431589 12.8471079,37.7431589 C12.8471079,37.7431589 25.1428079,30.6146204 27.0716057,30.9923113 C30.9292011,31.7476932 30.9292011,36.2799842 34.0152775,36.2799842 C37.101354,36.2799842 37.872873,34.7692206 40.1874304,35.5246025 C42.5019877,36.2799842 41.7304687,39.3015115 44.8165451,40.0568934 C47.9026215,40.8122753 50.2727281,41.2843889 50.9886979,44.5891845 C53.6890147,57.0529849 46.7453428,73.5699462 46.3595832,80.7460738 C45.9923402,87.5769917 46.3595832,90.5660377 46.3595832,90.5660377" id="Stroke-3"></path>
                <path d="M10.0898707,57.8403677 C10.0898707,53.2872049 8.5200747,13.0675997 8.5200747,6.23785542 C8.5200747,-0.591888881 16.3690546,-2.10960983 17.9388506,5.47899492 C19.5086466,13.0675997 18.6554625,32.401847 21.6153128,33.6714206" id="Stroke-7"></path>
            </g>
        </g>
    </g>
</svg>